<?xml version="1.0" encoding="utf-8"?>
<!-- Generator: Adobe Illustrator 22.1.0, SVG Export Plug-In . SVG Version: 6.00 Build 0)  -->
<svg version="1.1" xmlns="http://www.w3.org/2000/svg" xmlns:xlink="http://www.w3.org/1999/xlink" x="0px" y="0px"
	 viewBox="0 0 595.2756 595.2756" enable-background="new 0 0 595.2756 595.2756" xml:space="preserve">
<g id="Zeichen">
	<g>
		<g>
			<path fill="#3F5D6E" d="M264.7554,584.6056c-50.8841,0-100.1981-14.5159-143.0228-42.681
				c-58.1899-38.2758-97.3932-97.3982-110.3895-166.4903C-15.8139,231.0481,80.7728,86.8812,226.6484,54.0614l0.1991,0.882
				l-0.1991-0.882c71.5618-16.1012,143.8267-3.3493,203.4935,35.8918c58.1899,38.2733,97.3932,97.4007,110.387,166.4903
				c27.162,144.3837-69.4197,288.5506-215.3003,321.3728C305.0322,582.3627,284.7703,584.6056,264.7554,584.6056z M227.0466,55.8255
				C82.106,88.4336-13.8608,231.6605,13.1173,375.1016c12.9056,68.6031,51.8316,127.3123,109.6058,165.3109
				c59.2534,38.9714,131.0244,51.6275,202.1124,35.6398c144.9381-32.6106,240.9049-175.835,213.9193-319.2761
				C525.8516,188.173,486.9256,129.4639,429.149,91.4628C369.9005,52.4914,298.1271,39.8327,227.0466,55.8255L227.0466,55.8255z"/>
			<path fill="#3E5D6F" d="M264.7552,585.1223c-51.2126,0-100.7667-14.7886-143.3064-42.7659
				C63.1389,504.0023,23.8566,444.7551,10.8355,375.529C-16.3408,231.0409,80.1687,86.771,226.0304,53.6709l1.009-0.2272v0.001
				c71.5249-15.9652,143.7346-3.1543,203.3878,36.0766c58.3079,38.3531,97.5913,97.5993,110.6103,166.8265
				c27.2137,144.6557-69.5473,289.0913-215.6959,321.9732C305.295,582.8336,284.9109,585.1223,264.7552,585.1223z M226.2576,54.6799
				C80.9323,87.6588-15.2228,231.3904,11.8516,375.3391c12.9685,68.9474,52.0923,127.9542,110.1649,166.1528
				c42.3709,27.8662,91.7292,42.5962,142.7387,42.5962c20.079,0,40.3883-2.2806,60.3603-6.7772
				c145.6112-32.7607,242.0167-176.6589,214.904-320.7713c-12.9645-68.9494-52.0883-127.9572-110.1618-166.1538
				c-59.4149-39.0753-131.3418-51.8277-202.5909-35.9331l0.0848,0.3767l-1.008,0.2283L226.2576,54.6799z M264.7633,583.3144
				c-50.6409,0-99.7133-14.4451-142.3236-42.4689C64.5458,502.7681,25.5413,443.941,12.6091,375.1957
				C-14.4208,231.4843,81.7251,87.9891,226.9333,55.3203l0.1131,0.505l-0.1131-0.505
				c71.2169-16.0238,143.1316-3.3391,202.5001,35.7099c57.8938,38.0804,96.9004,96.9085,109.8305,165.6498
				c27.034,143.7094-69.1069,287.2056-214.3161,319.8774C304.8445,581.0782,284.6817,583.3124,264.7633,583.3144z M287.1208,49.5955
				c-19.8467,0-39.9267,2.2271-59.9613,6.7337C82.4887,88.8769-13.3027,231.8348,13.6252,375.0058
				c12.8797,68.4646,51.7257,127.0553,109.3821,164.9751c59.1351,38.8935,130.7762,51.5227,201.7142,35.5665
				c144.6719-32.5506,240.4593-175.5075,213.5243-318.6755c-12.8776-68.4636-51.7227-127.0533-109.3821-164.9771
				C386.4332,63.9842,337.5527,49.5955,287.1208,49.5955z"/>
		</g>
		<g>
			<path fill="#3F5D6E" d="M293.5933,557.0908c-67.5522,0-131.6267-24.5915-181.8354-70.0951
				c-53.7974-48.7596-85.2184-115.6995-88.477-188.5012C16.5472,148.0701,133.5647,19.1349,284.1328,11.078
				c73.0512-3.8861,142.9195,20.8491,196.8201,69.7019c53.7898,48.7546,85.2109,115.6944,88.4669,188.4911
				c6.7338,150.4219-110.2812,279.3571-260.8492,287.4165C303.563,556.9547,298.5656,557.0908,293.5933,557.0908z M284.1806,11.9802
				l0.0479,0.9022C134.6483,20.8864,18.3969,148.9773,25.0854,298.4139c3.2359,72.3128,34.4477,138.8091,87.8847,187.2411
				c53.5428,48.5227,122.9449,73.1142,195.4996,69.2281c149.5852-8.004,265.8391-136.0924,259.1457-285.5315
				c-3.2359-72.3103-34.4453-138.8041-87.8772-187.2335C426.1954,33.5878,356.7202,8.9812,284.2285,12.8824L284.1806,11.9802z"/>
			<path fill="#3E5D6F" d="M293.593,557.6076c-67.5111,0-132.2114-24.9412-182.1827-70.228
				c-53.9002-48.8522-85.3823-115.925-88.6456-188.8619C16.0179,147.81,133.2549,18.6337,284.105,10.5617
				c73.1712-3.8966,143.2114,20.9092,197.1945,69.8352c53.8982,48.8512,85.3762,115.9199,88.6365,188.8508
				c6.7469,150.7057-110.4871,279.882-261.3362,287.958C303.58,557.4723,298.532,557.6076,293.593,557.6076z M299.0279,11.198
				c-4.942,0-9.8931,0.1313-14.8684,0.3959C133.874,19.6356,17.0764,148.3281,23.797,298.4712
				c3.2522,72.6581,34.6141,139.4764,88.3083,188.1407c49.7804,45.1151,114.2342,69.9614,181.4878,69.9614
				c4.9208,0,9.9506-0.1353,14.9502-0.402c150.2855-8.0437,267.0811-136.7372,260.3585-286.8773
				c-3.2482-72.6531-34.605-139.4663-88.2971-188.1316C430.4979,35.7493,366.5016,11.198,299.0279,11.198z M293.592,555.7997
				c-67.2293,0.002-130.9964-24.4745-180.9697-69.7614C59.0817,437.5113,27.8108,370.887,24.5696,298.4369
				C17.8753,148.8887,134.073,20.682,283.6848,12.3948l-0.0202-0.3878l1.0322-0.0545l0.0202,0.3868
				c72.4622-3.7754,141.8277,20.8678,195.3683,69.3958C533.62,130.259,564.89,196.8813,568.1321,269.3284
				c6.7065,149.7219-109.7639,278.0518-259.6333,286.0713C303.5174,555.6664,298.54,555.7977,293.592,555.7997z M284.0312,13.4109
				C134.8375,21.5122,18.9287,149.3068,25.6029,298.3904c3.228,72.1713,34.3787,138.5411,87.7144,186.8802
				c53.4447,48.4341,122.7557,72.9894,195.125,69.0948C457.748,546.3783,573.78,418.5312,567.0978,269.3748
				c-3.23-72.1703-34.3788-138.5361-87.7073-186.8742c-53.4255-48.424-122.6638-72.9672-194.9957-69.109l-0.0636,0.003
				c-0.0262,0.002-0.0485,0.003-0.0747,0.004L284.0312,13.4109z"/>
		</g>
		<g>
			<path fill="#3F5D6E" d="M312.2098,573.6388c-67.5522,0-131.6267-24.5915-181.8354-70.0951
				c-53.7974-48.7596-85.2184-115.6995-88.477-188.5012C35.1637,164.6181,152.1812,35.6829,302.7493,27.626
				c73.0512-3.8861,142.9195,20.8491,196.8201,69.7019c53.7898,48.7546,85.2109,115.6944,88.4669,188.4911
				c6.7338,150.4219-110.2812,279.3571-260.8492,287.4165C322.1795,573.5027,317.1821,573.6388,312.2098,573.6388z
				 M302.7971,28.5282l0.0479,0.9022C153.2648,37.4344,37.0135,165.5253,43.7019,314.9619
				c3.2359,72.3128,34.4478,138.8091,87.8847,187.2411c53.5428,48.5227,122.9449,73.1142,195.4996,69.2281
				c149.5852-8.004,265.8391-136.0924,259.1457-285.5315c-3.2359-72.3103-34.4453-138.8041-87.8772-187.2336
				C444.8119,50.1359,375.3368,25.5292,302.845,29.4304L302.7971,28.5282z"/>
			<path fill="#3E5D6F" d="M312.2095,574.1556c-67.5111,0-132.2114-24.9412-182.1827-70.2281
				c-53.9002-48.8522-85.3823-115.925-88.6456-188.8619C34.6344,164.358,151.8714,35.1817,302.7215,27.1097
				C375.917,23.208,445.9329,48.0179,499.916,96.9448c53.8982,48.8512,85.3762,115.9199,88.6365,188.8508
				c6.7469,150.7057-110.4871,279.882-261.3362,287.9581C322.1965,574.0203,317.1485,574.1556,312.2095,574.1556z M317.6454,27.746
				c-4.941,0-9.8941,0.1313-14.8674,0.3959C152.4915,36.1836,35.6929,164.8771,42.4135,315.0213
				c3.2522,72.6581,34.6141,139.4744,88.3083,188.1387c49.7804,45.1152,114.2342,69.9614,181.4878,69.9614
				c4.9208,0,9.9506-0.1354,14.9502-0.402c150.2855-8.0438,267.0811-136.7373,260.3585-286.8773
				c-3.2482-72.6531-34.605-139.4663-88.2971-188.1317C449.1144,52.2973,385.1181,27.746,317.6454,27.746z M312.2095,572.3477
				c-67.2303,0.002-130.9974-24.4745-180.9707-69.7614C77.6982,454.0593,46.4273,387.435,43.1861,314.9849
				C36.4918,165.4377,152.6885,37.23,302.3013,28.9428l-0.0222-0.3878l1.0342-0.0545l0.0202,0.3868
				c72.4501-3.7865,141.8257,20.8658,195.3683,69.3958c53.5346,48.5239,84.8046,115.1462,88.0467,187.5933
				c6.7064,149.722-109.7639,278.0519-259.6333,286.0714C322.1339,572.2144,317.1566,572.3457,312.2095,572.3477z M302.6952,29.9569
				c-149.22,8.073-265.151,135.8797-258.4758,284.9836c3.228,72.1713,34.3787,138.5391,87.7144,186.8782
				c53.4437,48.4341,122.7537,72.9773,195.125,69.0948c149.3058-7.9872,265.3378-135.8343,258.6556-284.9907
				c-3.23-72.1703-34.3788-138.5361-87.7073-186.8742c-53.4154-48.4149-122.6516-72.9702-194.9522-69.111l-0.1293,0.0061
				c-0.0182,0.001-0.0343,0.002-0.0525,0.003L302.6952,29.9569z"/>
		</g>
	</g>
</g>
</svg>