<?xml version="1.0" encoding="utf-8"?>
<!-- Generator: Adobe Illustrator 22.1.0, SVG Export Plug-In . SVG Version: 6.00 Build 0)  -->
<svg version="1.1" xmlns="http://www.w3.org/2000/svg" xmlns:xlink="http://www.w3.org/1999/xlink" x="0px" y="0px"
	 viewBox="0 0 595.2756 595.2756" enable-background="new 0 0 595.2756 595.2756" xml:space="preserve">
<g id="Schrift">
	<g>
		<path fill="#AB5153" d="M425.4094,370.1312c-7.4857,0-12.1938-5.8068-12.1938-12.3632c0-6.3921,4.5387-12.1989,12.0244-12.1989
			s12.1989,5.8068,12.1989,12.3632C437.4389,364.3244,432.8951,370.1312,425.4094,370.1312 M424.9062,401.4191
			c-7.8246,0-11.9473-3.7018-11.9473-8.8308c0-4.2871,2.1872-8.2404,7.3214-10.597c1.5146,0.2516,4.8775,0.421,7.4857,0.5031
			c6.8131,0.1694,13.1179,0.7599,13.1179,8.4971C440.8839,397.2963,433.655,401.4191,424.9062,401.4191 M424.7368,403.4369
			c10.0938,0,18.3343-4.7903,18.3343-12.6148c0-8.9181-7.4857-10.176-15.1357-10.3454c-6.0583-0.2516-11.6957-0.0822-11.6957-4.2922
			c0-2.0999,1.5146-4.1176,4.2049-4.7081c1.4325,0.5031,3.0292,0.6726,4.7953,0.6726c8.5793,0,14.3861-6.1405,14.3861-14.3809
			c0-4.7953-2.0178-8.836-5.2985-11.3569h8.2404v-2.0178h-11.9422c-1.5967-0.5032-3.368-0.842-5.2163-0.842
			c-8.5793,0-14.3809,6.1405-14.3809,14.3809c0,5.8068,2.7724,10.3455,7.2341,12.6199c-2.1051,0.5853-4.2101,3.1114-4.2101,5.8017
			c0,2.5261,1.5146,4.3744,4.0406,5.1342c-3.7018,1.6789-7.3214,5.8838-7.3214,11.2696
			C410.7718,399.0676,415.7366,403.4369,424.7368,403.4369 M371.4077,384.2606h2.1872v-30.0249
			c2.105-3.7018,7.4857-8.6665,13.2103-8.6665c6.8953,0,9.5034,4.4565,9.5034,11.3569v27.3346h2.1872v-27.925
			c0-7.5678-3.2808-12.7842-11.3569-12.7842c-6.3921,0-11.4391,4.5438-13.5441,7.9888v-7.1468h-2.1872V384.2606z M353.2429,384.2606
			h2.1872v-39.8672h-2.1872V384.2606z M354.3365,334.9721c0.9241,0,1.8483-0.842,1.8483-2.0177
			c0-1.1809-0.9242-2.0178-1.8483-2.0178s-1.8483,0.8369-1.8483,2.0178C352.4882,334.1301,353.4124,334.9721,354.3365,334.9721
			 M310.516,384.2606h2.1872v-30.0249c2.0999-3.7018,7.4857-8.6665,13.2052-8.6665c6.8953,0,9.5034,4.4565,9.5034,11.3569v27.3346
			h2.1872v-27.925c0-7.5678-3.2808-12.7842-11.3569-12.7842c-6.3921,0-11.439,4.5438-13.5389,7.9888v-27.8377h-2.1872V384.2606z
			 M286.6265,385.1026c4.7953,0,9.1697-1.5967,12.1116-4.2049l-1.1757-1.684c-2.5209,2.4388-6.731,3.8712-10.7664,3.8712
			c-9.5034,0-13.8778-9.5907-13.8778-18.9247c0-9.8423,4.5438-18.591,14.2166-18.591c4.2049,0,7.65,1.5967,10.0887,3.8712
			l1.3503-1.4324c-2.4388-2.3515-6.1405-4.4565-11.2747-4.4565c-10.8486,0-16.5681,9.4213-16.5681,20.773
			C270.7309,374.5877,275.6085,385.1026,286.6265,385.1026 M245.0753,383.0848c-4.9596,0-8.7436-3.2808-8.7436-7.9067
			c0-8.3277,9.2518-11.2696,18.6731-11.2696h2.0177v12.9536C253.5724,381.0671,249.5369,383.0848,245.0753,383.0848
			 M244.911,385.1026c4.7081,0,9.334-2.1872,12.281-6.0584c0,1.6019,0.1643,3.7891,0.4159,5.2164h2.3566
			c-0.5031-1.4273-0.7547-3.9533-0.7547-6.8131V355.663c0-7.9889-4.2049-12.1116-11.6906-12.1116
			c-4.8826,0-8.9181,1.684-11.9473,4.7081l1.263,1.4325c3.0292-2.9419,6.5615-4.1228,10.4276-4.1228
			c6.5615,0,9.7601,3.4502,9.7601,10.8537v5.4628h-2.0177c-8.9181,0-20.8603,2.6955-20.8603,13.4619
			C234.1445,381.2314,238.4316,385.1026,244.911,385.1026 M208.6583,383.0848c-10.0117,0-15.2229-9.3391-15.2229-18.8426
			c0-9.5034,5.0469-18.6731,15.0535-18.6731c10.0117,0,15.3102,9.3391,15.3102,18.8426
			C223.7991,373.9151,218.6649,383.0848,208.6583,383.0848 M208.4888,385.1026c11.439,0,17.4974-9.9244,17.4974-20.8603
			c0-10.8486-5.9711-20.6909-17.328-20.6909c-11.439,0-17.4101,9.9244-17.4101,20.8603
			C191.2481,375.2603,197.1371,385.1026,208.4888,385.1026 M168.4522,385.1026c6.6437,0,12.0294-2.0178,15.9828-5.468
			l-1.3452-1.5146c-3.7018,3.1113-8.5793,4.9648-14.4682,4.9648c-14.7198,0-24.2232-12.5326-24.2232-26.9187
			c0-14.381,9.334-26.7441,24.0538-26.7441c5.1291,0,9.5907,1.4273,13.0358,3.8661l1.3451-1.7661
			c-3.7839-2.6082-8.5793-4.1176-14.2115-4.1176c-16.2344,0-26.4104,13.4568-26.4104,28.9313
			C142.2113,371.9795,152.3873,385.1026,168.4522,385.1026"/>
		<path fill="#AB5153" d="M430.961,274.0295c1.1758-7.573,5.8017-14.0472,13.4568-14.0472c8.4971,0,12.281,7.4857,12.281,14.0472
			H430.961z M445.0904,299.5157c5.55,0,10.1811-1.5967,13.4568-4.2049l-1.0936-1.684c-2.7725,2.3566-7.65,3.8712-12.1938,3.8712
			c-10.176,0-14.5504-9.4213-14.5504-19.5152c0-0.5904,0-1.263,0.0822-1.9356h28.0123c0.0822-0.5031,0.0822-1.0114,0.0822-1.5146
			c0-9.2519-5.2985-16.5681-14.2988-16.5681c-10.5149,0-16.065,9.5034-16.065,20.1877
			C428.5223,289.2524,433.3998,299.5157,445.0904,299.5157 M407.241,298.6737h2.1871v-29.0186
			c1.8483-3.7018,5.7195-9.6729,10.6792-9.6729c1.1809,0,2.1051,0.1694,2.9471,0.5032l0.5853-1.9356
			c-0.8369-0.3337-2.1821-0.5853-3.3629-0.5853c-5.6322,0-9.334,5.468-10.8486,8.7487v-7.9067h-2.1871V298.6737z M378.1403,297.498
			c-10.0117,0-15.2281-9.3391-15.2281-18.8426s5.0469-18.6732,15.0586-18.6732c10.0066,0,15.3051,9.334,15.3051,18.8426
			C393.2759,288.3282,388.1468,297.498,378.1403,297.498 M377.9708,299.5157c11.4391,0,17.4923-9.9244,17.4923-20.8603
			c0-10.8486-5.9711-20.6909-17.3228-20.6909c-11.4391,0-17.4153,9.9244-17.4153,20.8603
			C360.725,289.6734,366.6139,299.5157,377.9708,299.5157 M300.3364,298.6737h2.1872v-30.03
			c2.0999-3.6966,6.7258-8.6614,12.4453-8.6614c6.6488,0,8.7487,4.4565,8.7487,11.3569v27.3346h2.1872v-30.03
			c2.105-3.6966,6.731-8.6614,12.4505-8.6614c6.6437,0,8.7487,4.4565,8.7487,11.3569v27.3346h2.1872v-27.925
			c0-7.5678-2.7776-12.7842-10.6021-12.7842c-6.3921,0-11.018,4.5386-13.2052,8.3277c-0.6726-4.8826-3.8661-8.3277-10.176-8.3277
			c-6.3921,0-10.6843,4.3744-12.7842,7.9067v-7.0647h-2.1872V298.6737z M264.2531,298.6737h2.1872v-60.5632h-2.1872V298.6737z
			 M286.8796,298.6737h2.9419l-20.0183-22.4571l18.9247-17.4101h-3.1935l-18.7604,17.3228L286.8796,298.6737z M240.3636,299.5157
			c4.7954,0,9.1697-1.5967,12.1167-4.2049l-1.1809-1.684c-2.5209,2.4388-6.7258,3.8712-10.7664,3.8712
			c-9.5034,0-13.8778-9.5907-13.8778-18.9247c0-9.8423,4.5438-18.591,14.2166-18.591c4.2049,0,7.6551,1.5968,10.0939,3.8712
			l1.3452-1.4324c-2.4388-2.3566-6.1405-4.4565-11.2696-4.4565c-10.8537,0-16.5732,9.4213-16.5732,20.773
			C224.4681,289.0008,229.3456,299.5157,240.3636,299.5157 M198.8175,297.498c-4.9648,0-8.7487-3.2808-8.7487-7.9067
			c0-8.3277,9.2518-11.2747,18.6731-11.2747h2.0178v12.9536C207.3095,295.4751,203.274,297.498,198.8175,297.498 M198.6481,299.5157
			c4.7081,0,9.334-2.1872,12.2811-6.0584c0,1.6019,0.1694,3.7839,0.421,5.2164h2.3515c-0.5031-1.4325-0.7547-3.9533-0.7547-6.8131
			v-21.7845c0-7.9888-4.2049-12.1116-11.6906-12.1116c-4.8775,0-8.9181,1.6789-11.9473,4.7081l1.263,1.4324
			c3.0292-2.9471,6.5615-4.1228,10.4327-4.1228c6.5564,0,9.755,3.4502,9.755,10.8486v5.4679h-2.0178
			c-8.9181,0-20.8603,2.6903-20.8603,13.4568C187.8816,295.6445,192.1687,299.5157,198.6481,299.5157 M173.3313,298.6737h2.1872
			v-60.5632h-2.1872V298.6737z M131.1075,267.8889v-23.2169h8.0761c11.2696,0,16.065,3.5323,16.065,11.6084
			c0,7.573-5.2985,11.6085-16.065,11.6085H131.1075z M131.1075,296.6559v-26.7492h8.4098c11.6085,0,18.2521,4.7132,18.2521,13.3746
			c0,9.1697-6.1405,13.3746-18.2521,13.3746H131.1075z M128.9203,298.6737h10.6843c12.8663,0,20.352-4.6259,20.352-15.3924
			c0-8.3277-5.8017-13.0358-13.1179-14.381v-0.0873c6.0532-1.263,10.597-5.8889,10.597-12.5326
			c0-9.8423-6.0584-13.6262-18.17-13.6262h-10.3454V298.6737z"/>
	</g>
</g>
</svg>
